<svg xmlns="http://www.w3.org/2000/svg" xmlns:xlink="http://www.w3.org/1999/xlink" viewBox="0 0 64 64" width="64" height="64">
 <defs>
  <linearGradient id="0">
   <stop stop-color="#16a085"/>
   <stop offset="1" stop-color="#16a085" stop-opacity="0"/>
  </linearGradient>
  <radialGradient xlink:href="#0" id="1" gradientUnits="userSpaceOnUse" gradientTransform="matrix(2.1173044e-4,-3.047619,3.047619,2.1173044e-4,-1453.7249,185.80155)" cx="50.5" cy="487.5" r="10.5"/>
 </defs>
 <path d="M 32.002234,4.9987135e-8 C 49.675325,0.00122795 64.001228,14.329112 64,32.002223 63.998772,49.675337 49.670878,64.001228 31.997788,64 14.324675,63.998772 -0.0012277,49.670889 9.9987146e-8,31.997776 0.001228,14.324666 14.329121,-0.00122775 32.002234,4.9987135e-8 z" opacity="0.431" fill="url(#1)" color="#000000"/>
 <path d="M 32.000695,22 C 37.523543,22.000384 42.000382,26.477847 42,32.000695 41.999614,37.523543 37.522153,42.000385 31.999305,42 26.476457,41.999618 21.999616,37.522153 22,31.999305 22.000384,26.476457 26.477847,21.999617 32.000695,22 z" fill="#16a085" color="#000000"/>
</svg>
